<svg width="102" height="102" viewBox="0 0 102 102" fill="none" xmlns="http://www.w3.org/2000/svg">
<path d="M79.87 0H22.05C9.87212 0 0 9.87212 0 22.05V79.87C0 92.0479 9.87212 101.92 22.05 101.92H79.87C92.0479 101.92 101.92 92.0479 101.92 79.87V22.05C101.92 9.87212 92.0479 0 79.87 0Z" fill="#4AA454"/>
<path d="M74.06 79.26C76.8214 79.26 79.06 77.0214 79.06 74.26C79.06 71.4986 76.8214 69.26 74.06 69.26C71.2986 69.26 69.06 71.4986 69.06 74.26C69.06 77.0214 71.2986 79.26 74.06 79.26Z" fill="#FFE85C"/>
<path d="M70.13 59.14C70.13 42.14 43.39 47.23 43.39 39.85C43.39 36.85 46.39 35.94 50.9 35.94C56.64 35.94 58.66 38.14 58.66 41.17C58.6716 41.5281 58.6481 41.8865 58.59 42.24H69.59C69.6399 41.7183 69.66 41.1941 69.65 40.67C69.65 33.29 65.25 28.34 56.05 26.95V19.26H46.3V26.81C37.83 27.96 31.81 32.81 31.81 40.73C31.81 57.82 58.55 52.52 58.55 59.96C58.55 62.87 56.03 63.96 51.04 63.96C46.44 63.96 42.97 62.57 42.97 58.6C42.9585 58.2817 42.982 57.9632 43.04 57.65H32.06C32.0103 58.1517 31.9902 58.6559 32 59.16C32 64.71 34.73 71.46 46.3 73.02V79.26H56.06V73.01C64.63 71.73 70.13 66.63 70.13 59.14Z" fill="#F0EBE6"/>
</svg>
