<svg width="102" height="102" viewBox="0 0 102 102" fill="none" xmlns="http://www.w3.org/2000/svg">
<path d="M79.87 0H22.05C9.87212 0 0 9.87212 0 22.05V79.87C0 92.0479 9.87212 101.92 22.05 101.92H79.87C92.0479 101.92 101.92 92.0479 101.92 79.87V22.05C101.92 9.87212 92.0479 0 79.87 0Z" fill="#4AA454"/>
<path d="M50 86C57.732 86 64 79.732 64 72C64 64.268 57.732 58 50 58C42.268 58 36 64.268 36 72C36 79.732 42.268 86 50 86Z" fill="#F0EBE6"/>
<path d="M28.6706 36.1073C27.5735 35.3086 27.5735 33.6723 28.6706 32.8735L48.763 18.2456C49.4646 17.7348 50.4157 17.7348 51.1173 18.2456L71.2097 32.8735C72.3068 33.6723 72.3068 35.3086 71.2097 36.1073L51.1173 50.7353C50.4157 51.2461 49.4646 51.2461 48.763 50.7353L28.6706 36.1073Z" fill="#F0EBE6"/>
</svg>
