<svg width="512" height="512" viewBox="0 0 512 512" fill="none" xmlns="http://www.w3.org/2000/svg">
<path d="M401.231 0H110.769C49.5931 0 0 49.5931 0 110.769V401.231C0 462.407 49.5931 512 110.769 512H401.231C462.407 512 512 462.407 512 401.231V110.769C512 49.5931 462.407 0 401.231 0Z" fill="#A7A7A7"/>
<path d="M443.014 149.846V225.666C443.014 226.552 442.701 227.409 442.132 228.087L257.064 448.353C255.566 450.136 252.825 450.144 251.317 448.37L66.2845 230.808C65.7058 230.127 65.3881 229.263 65.3881 228.37V149.828C65.3881 148.975 65.678 148.147 66.2104 147.48L134.489 61.9671C135.203 61.0728 136.285 60.5521 137.429 60.5521H369.749C370.883 60.5521 371.955 61.0627 372.67 61.942L442.171 147.473C442.716 148.144 443.014 148.982 443.014 149.846Z" fill="#E8A6FF" stroke="#7F00E2" stroke-width="3.76295"/>
<path d="M262.863 75.8496H252.802V153.708H331.853L262.863 75.8496Z" fill="#C581FB"/>
<path d="M262.863 75.8496H364.909L331.852 153.708L262.863 75.8496Z" fill="#A35BFF"/>
<path d="M426.713 152.178L331.853 153.704L252.802 362.853L426.713 152.178Z" fill="#B75EFC"/>
<path d="M426.713 223.929V152.178L252.802 362.853V430.024L426.713 223.929Z" fill="#8601EE"/>
<path d="M426.713 152.181L331.853 153.707L364.911 75.8492L426.713 152.181Z" fill="#A12FFB"/>
<path d="M331.853 153.705H252.802V364.38L331.853 153.705Z" fill="#A157FF"/>
<path d="M244.18 75.8496H254.241V153.708H175.191L244.18 75.8496Z" fill="#C581FB"/>
<path d="M244.181 75.8496H142.134L175.191 153.708L244.181 75.8496Z" fill="#A35BFF"/>
<path d="M80.3307 152.178L175.191 153.704L254.241 362.853L80.3307 152.178Z" fill="#B75EFC"/>
<path d="M80.3307 223.929V152.178L254.241 362.853V430.024L80.3307 223.929Z" fill="#8601EE"/>
<path d="M80.33 152.181L175.19 153.707L142.133 75.8492L80.33 152.181Z" fill="#A12FFB"/>
<path d="M175.191 153.705H254.241V364.38L175.191 153.705Z" fill="#A157FF"/>
</svg>
