<svg width="307" height="148" viewBox="0 0 307 148" fill="none" xmlns="http://www.w3.org/2000/svg">
<rect width="307" height="148" rx="10" fill="white"/>
<path d="M266.742 88.3248C271.287 88.3248 274.972 84.6612 274.972 80.1419C274.972 75.6227 271.287 71.9591 266.742 71.9591C262.196 71.9591 258.511 75.6227 258.511 80.1419C258.511 84.6612 262.196 88.3248 266.742 88.3248Z" fill="#FFE85C"/>
<path d="M33.1851 74.3593C33.1729 73.8005 33.1982 73.2415 33.2609 72.686H45.5971C45.5342 73.0337 45.5088 73.3871 45.5213 73.7402C45.5213 78.1742 49.4174 79.7136 54.5841 79.7136C60.1716 79.7136 62.999 78.5256 62.999 75.2879C62.999 66.9803 33 72.8952 33 53.8287C33 43.6304 41.9871 38 53.8016 38C68.5192 38 75.453 43.9818 75.453 53.7618C75.4642 54.3482 75.4417 54.9348 75.3857 55.5187H63.0495C63.1052 55.1225 63.1277 54.7223 63.1168 54.3223C63.1168 50.9759 60.8532 48.466 54.4159 48.466C49.3164 48.466 46.001 49.4533 46.001 52.8248C46.001 61.0571 76 55.4267 76 74.3509C76 84.064 67.6524 90.1796 55.1984 90.1796C37.1822 90.188 33.1851 81.3952 33.1851 74.3593Z" fill="#4AA454"/>
<path d="M152.429 49.5381V70.5589C152.429 75.1049 150.088 77.978 144.821 77.978C139.553 77.978 137.212 75.1413 137.212 70.5589V49.5381H125.177V70.5589C125.177 82.9241 132.64 88.0883 144.784 88.0883C147.486 88.0814 150.128 87.2983 152.393 85.8335V91.4706C152.393 96.0166 150.052 98.8897 144.784 98.8897C139.517 98.8897 137.176 96.053 137.176 91.4706H125.177C125.177 103.836 132.64 109 144.784 109C156.929 109 164.391 103.836 164.391 91.4706V49.5381H152.429Z" fill="#4AA454"/>
<path d="M182.791 87.07L166.913 49.5H181.472L190.911 73.3229H191.643L200.069 49.5H213.969L199.069 87.07H182.791Z" fill="#4AA454"/>
<path d="M99.3885 90.1432C95.2284 90.1432 91.1618 88.9167 87.7029 86.6189C84.244 84.3211 81.548 81.0551 79.9561 77.234C78.3641 73.4129 77.9476 69.2083 78.7591 65.1518C79.5707 61.0954 81.574 57.3693 84.5156 54.4447C87.4571 51.5202 91.2049 49.5285 95.285 48.7216C99.3651 47.9148 103.594 48.3289 107.438 49.9116C111.281 51.4944 114.566 54.1747 116.877 57.6136C119.188 61.0525 120.422 65.0956 120.422 69.2315C120.422 74.7776 118.206 80.0966 114.261 84.0183C110.317 87.94 104.967 90.1432 99.3885 90.1432ZM99.3885 59.2303C97.3989 59.2303 95.454 59.8168 93.7997 60.9158C92.1454 62.0147 90.8561 63.5767 90.0947 65.4042C89.3333 67.2317 89.1341 69.2426 89.5223 71.1826C89.9104 73.1227 90.8685 74.9047 92.2753 76.3034C93.6822 77.7021 95.4746 78.6546 97.426 79.0405C99.3773 79.4264 101.4 79.2284 103.238 78.4714C105.076 77.7145 106.647 76.4326 107.753 74.7879C108.858 73.1432 109.448 71.2096 109.448 69.2315C109.448 66.579 108.388 64.0352 106.502 62.1596C104.615 60.284 102.056 59.2303 99.3885 59.2303Z" fill="#4AA454"/>
<path d="M120.422 49.229H109.448V89.2339H120.422V49.229Z" fill="#4AA454"/>
<path d="M232.225 90.1431H231.905C226.62 90.1359 221.553 88.0454 217.816 84.3298C214.079 80.6143 211.976 75.5771 211.969 70.3225V68.1495C211.969 57.4118 220.931 48.3198 231.457 48.3198H232.372C242.879 48.3198 251.841 57.4118 251.841 68.1495V73.1501H222.449C223.062 75.1703 224.312 76.9408 226.015 78.2C227.718 79.4591 229.783 80.14 231.905 80.1419H232.225C233.698 80.1471 235.153 79.8229 236.483 79.1934C237.813 78.5639 238.983 77.6451 239.907 76.5051C240.271 76.0577 240.595 75.5801 240.876 75.0777L249.674 79.9237C249.111 80.9345 248.462 81.8956 247.735 82.7968C245.867 85.0969 243.504 86.951 240.82 88.2225C238.136 89.4939 235.199 90.1502 232.225 90.1431V90.1431ZM223.391 63.1489H240.419C239.617 61.7133 238.45 60.5119 237.034 59.6648C235.619 58.8177 234.005 58.3543 232.353 58.3211H231.439C229.79 58.3575 228.18 58.8223 226.768 59.6693C225.356 60.5163 224.192 61.7159 223.391 63.1489V63.1489Z" fill="#4AA454"/>
</svg>
