<svg width="307" height="148" viewBox="0 0 307 148" fill="none" xmlns="http://www.w3.org/2000/svg">
<rect width="307" height="148" rx="10" fill="#7B35A0"/>
<path d="M267.77 95.3247C272.315 95.3247 276 91.6612 276 87.1419C276 82.6227 272.315 78.9591 267.77 78.9591C263.224 78.9591 259.539 82.6227 259.539 87.1419C259.539 91.6612 263.224 95.3247 267.77 95.3247Z" fill="#FFE85C"/>
<path d="M77 80.203C77 60.976 47.0186 66.6965 47.0186 58.3325C47.0186 54.9325 50.3826 53.904 55.4285 53.904C61.8621 53.904 64.1244 56.403 64.1244 59.854C64.1358 60.2604 64.1132 60.667 64.0571 61.0695H76.3608C76.4238 60.4767 76.4491 59.8805 76.4365 59.2845C76.4365 50.929 71.4999 45.319 61.1809 43.738V35H50.248V43.551C40.7532 44.86 34 50.351 34 59.3355C34 78.6985 63.9898 72.6975 63.9898 81.1295C63.9898 84.419 61.1557 85.6345 55.5799 85.6345C50.4162 85.6345 46.5308 84.062 46.5308 79.557C46.5197 79.1987 46.5422 78.84 46.5981 78.486H34.2691C34.2138 79.0508 34.1913 79.6185 34.2018 80.186C34.2018 86.4675 37.2631 94.1175 50.2312 95.8855V103H61.1641V95.9195C70.8271 94.5 77 88.686 77 80.203Z" fill="#F0EBE6"/>
<path d="M153.457 56.5381V77.5589C153.457 82.1049 151.116 84.978 145.849 84.978C140.581 84.978 138.24 82.1413 138.24 77.5589V56.5381H126.205V77.5589C126.205 89.9241 133.668 95.0883 145.812 95.0883C148.514 95.0814 151.156 94.2983 153.421 92.8335V98.4706C153.421 103.017 151.08 105.89 145.812 105.89C140.545 105.89 138.203 103.053 138.203 98.4706H126.205C126.205 110.836 133.668 116 145.812 116C157.957 116 165.419 110.836 165.419 98.4706V56.5381H153.457Z" fill="#F0EBE6"/>
<path d="M183.819 94.07L167.941 56.5H182.5L191.939 80.3229H192.671L201.097 56.5H214.997L200.097 94.07H183.819Z" fill="#F0EBE6"/>
<path d="M100.416 97.1431C96.2563 97.1431 92.1897 95.9167 88.7308 93.6189C85.2719 91.3211 82.5759 88.0551 80.984 84.234C79.392 80.4129 78.9755 76.2083 79.787 72.1518C80.5986 68.0954 82.6019 64.3692 85.5435 61.4447C88.485 58.5202 92.2328 56.5285 96.3129 55.7216C100.393 54.9147 104.622 55.3289 108.466 56.9116C112.309 58.4944 115.594 61.1747 117.905 64.6136C120.216 68.0525 121.45 72.0955 121.45 76.2315C121.45 81.7776 119.234 87.0966 115.289 91.0183C111.345 94.94 105.995 97.1431 100.416 97.1431ZM100.416 66.2303C98.4268 66.2303 96.4819 66.8168 94.8276 67.9158C93.1733 69.0147 91.884 70.5767 91.1226 72.4042C90.3612 74.2317 90.162 76.2426 90.5502 78.1826C90.9383 80.1227 91.8964 81.9047 93.3032 83.3034C94.7101 84.7021 96.5025 85.6546 98.4538 86.0405C100.405 86.4264 102.428 86.2284 104.266 85.4714C106.104 84.7144 107.675 83.4326 108.781 81.7879C109.886 80.1432 110.476 78.2095 110.476 76.2315C110.476 73.579 109.416 71.0351 107.529 69.1595C105.643 67.2839 103.084 66.2303 100.416 66.2303Z" fill="#F0EBE6"/>
<path d="M121.45 56.229H110.476V96.2339H121.45V56.229Z" fill="#F0EBE6"/>
<path d="M233.253 97.1431H232.933C227.648 97.1359 222.581 95.0454 218.844 91.3298C215.107 87.6143 213.004 82.5771 212.997 77.3225V75.1495C212.997 64.4118 221.959 55.3198 232.485 55.3198H233.399C243.907 55.3198 252.869 64.4118 252.869 75.1495V80.1501H223.477C224.09 82.1703 225.34 83.9408 227.043 85.2C228.746 86.4591 230.811 87.14 232.933 87.1419H233.253C234.726 87.1471 236.181 86.8229 237.511 86.1934C238.84 85.5639 240.011 84.6451 240.935 83.5051C241.298 83.0577 241.623 82.5801 241.904 82.0777L250.702 86.9237C250.139 87.9345 249.49 88.8956 248.763 89.7968C246.895 92.0969 244.532 93.951 241.848 95.2225C239.164 96.4939 236.226 97.1502 233.253 97.1431ZM224.419 70.1489H241.447C240.645 68.7133 239.477 67.5119 238.062 66.6648C236.647 65.8177 235.033 65.3543 233.381 65.3211H232.467C230.818 65.3575 229.208 65.8223 227.796 66.6693C226.384 67.5163 225.22 68.7159 224.419 70.1489Z" fill="#F0EBE6"/>
</svg>
